<svg xmlns="http://www.w3.org/2000/svg" width="3140" height="3188" viewBox="0 0 3140 3188"><path d="M1596.92 31.898a39.19 39.19 0 0 0-46.36.345c-7.32 5.442-179.245 134.956-178.133 301.073 1.13 166.118 174.837 293.293 182.234 298.62 6.861 4.983 14.91 7.436 22.96 7.436a39.13 39.13 0 0 0 23.4-7.742c7.32-5.404 179.263-134.956 178.133-301.073-1.13-166.156-174.837-293.293-182.235-298.659m-19.836 517.555c-48.793-42.43-125.546-127.904-126.16-216.673-.632-94.979 81.947-181.028 123.38-218.168 41.933 36.566 125.7 121.503 126.352 216.482.651 95.131-82.215 181.295-123.572 218.36M313.802 1385.33h-1.61c-166.136 1.149-293.311 174.855-298.64 182.253-10.003 13.875-9.869 32.618.326 46.34 5.405 7.32 134.133 178.153 299.464 178.153h1.61c166.136-1.15 293.312-174.857 298.64-182.254 10.003-13.876 9.869-32.618-.326-46.34-5.405-7.321-134.133-178.153-299.464-178.153m.614 328.248h-1.093c-94.538 0-180.07-82.101-217.095-123.381 36.604-41.931 121.522-125.719 216.5-126.37h1.093c94.538 0 180.07 82.1 217.095 123.38-36.604 41.933-121.522 125.719-216.5 126.371m1277.06 837.333c-13.875-9.965-32.618-9.888-46.34.346-7.32 5.404-179.283 134.917-178.152 301.073 1.112 166.118 174.818 293.254 182.216 298.62a39.2 39.2 0 0 0 22.959 7.398c8.22 0 16.443-2.568 23.38-7.743 7.32-5.404 179.283-134.917 178.172-301.073-1.13-166.117-174.837-293.254-182.235-298.62m-19.854 517.517c-48.793-42.43-125.547-127.865-126.14-216.635-.652-95.017 81.946-181.027 123.38-218.168 41.932 36.566 125.7 121.465 126.351 216.444.633 95.132-82.234 181.295-123.59 218.36M2831.186 1390.81c-166.118 1.112-293.312 174.818-298.64 182.216-10.004 13.875-9.87 32.618.326 46.34 5.404 7.32 134.132 178.152 299.464 178.152h1.61c166.117-1.111 293.31-174.818 298.639-182.216 10.004-13.874 9.87-32.618-.307-46.339-5.423-7.36-134.112-177.692-301.092-178.153m2.222 328.21c-96.109 2.147-181.295-82.176-218.359-123.572 42.43-48.792 127.884-125.527 216.673-126.14h1.15c94.653 0 180.3 82.369 217.21 123.572-42.43 48.793-127.884 125.527-216.674 126.14M735.803 206.563C591.878 62.599 97.646 28.027 41.763 24.578c-11.518-.46-22.231 3.45-30.184 11.421A39.28 39.28 0 0 0 .157 66.164c3.469 55.884 38.06 550.173 181.966 694.06 76.332 76.35 176.562 114.488 276.83 114.488 87.948 0 175.906-29.418 247.7-88.152l62.63 62.625c7.666 7.665 17.708 11.498 27.75 11.498s20.085-3.833 27.75-11.498c15.332-15.332 15.332-40.17 0-55.5l-62.627-62.625c125.688-153.617 116.923-381.243-26.353-524.497m-498.18 498.16c-84.23-84.246-130.375-358.84-149.7-536.863L463.9 543.819H333.83c-21.675 0-39.249 17.554-39.249 39.248 0 21.695 17.574 39.25 39.249 39.25h208.574l108.219 108.211c-122.696 95.228-300.357 86.853-412.999-25.804m360.292-137.897V358.23c0-21.694-17.574-39.249-39.25-39.249-21.674 0-39.247 17.555-39.247 39.249v130.107L143.39 112.327c178.012 19.293 452.59 65.412 536.914 149.736 112.62 112.62 121.054 290.289 25.822 412.97zm226.868 1828.392c15.331-15.332 15.331-40.169 0-55.5-15.332-15.332-40.17-15.332-55.5 0l-62.632 62.629c-153.63-125.657-381.25-116.966-524.529 26.332C38.217 2572.566 3.626 3066.856.157 3122.74a39.28 39.28 0 0 0 11.422 30.164 39.16 39.16 0 0 0 27.75 11.499c.805 0 1.61-.038 2.434-.077 55.883-3.45 550.115-38.022 694.04-181.985 143.276-143.255 152.041-370.88 26.353-524.497zm-587.16 88.961c61.019-61.02 141.184-91.53 221.33-91.53 67.796 0 135.446 22.078 191.67 65.725l-108.221 108.212H333.829c-21.675 0-39.249 17.555-39.249 39.249s17.574 39.249 39.249 39.249H463.9L87.908 3021.057c19.292-178.018 65.416-452.592 149.715-536.877m442.679 442.66c-84.254 84.257-358.868 130.4-536.901 149.722l376.016-375.996v130.107c0 21.695 17.573 39.249 39.248 39.249s39.249-17.554 39.249-39.249v-208.595l108.21-108.207c95.232 122.68 86.798 300.35-25.822 412.97m1753.104-524.502-62.627-62.62c-15.331-15.332-40.168-15.332-55.5 0-15.332 15.331-15.332 40.168 0 55.5l62.627 62.625c-125.687 153.616-116.923 381.242 26.354 524.497 143.924 143.963 638.156 178.536 694.04 181.985a52 52 0 0 0 2.434.077 39.16 39.16 0 0 0 27.75-11.499 39.28 39.28 0 0 0 11.422-30.165c-3.47-55.883-38.06-550.173-181.967-694.06-143.28-143.301-370.901-152.054-524.533-26.34m247.703-9.688c80.146 0 160.31 30.51 221.33 91.53 84.23 84.246 130.376 358.839 149.7 536.862l-375.977-375.958h130.072c21.674 0 39.248-17.555 39.248-39.25 0-21.693-17.574-39.248-39.248-39.248H2597.66l-108.222-108.212c56.224-43.647 123.874-65.724 191.67-65.724m-247.171 121.22 108.21 108.207v208.595c0 21.695 17.573 39.249 39.248 39.249s39.249-17.554 39.249-39.249v-130.107l376.028 376.011c-178.012-19.294-452.59-65.413-536.914-149.737-112.62-112.62-121.054-290.288-25.821-412.97M2315.279 849.185c7.665 7.665 17.708 11.498 27.75 11.498s20.085-3.833 27.75-11.498l62.632-62.63c71.8 58.739 159.73 88.157 247.698 88.157 100.249 0 200.517-38.175 276.83-114.489 143.906-143.886 178.498-638.175 181.967-694.059A39.28 39.28 0 0 0 3128.483 36c-7.934-7.972-18.761-11.805-30.183-11.421-55.884 3.45-550.116 38.021-694.04 181.985-143.277 143.254-152.041 370.88-26.354 524.497l-62.627 62.624c-15.332 15.332-15.332 40.17 0 55.5m587.16-144.461c-112.625 112.657-290.29 121.06-413 25.804l108.22-108.212h208.575c21.674 0 39.248-17.554 39.248-39.249 0-21.694-17.574-39.248-39.248-39.248h-130.072l375.992-375.974c-19.291 178.019-65.415 452.593-149.715 536.879m-442.68-442.66c84.254-84.258 358.869-130.4 536.902-149.723l-376.016 375.996V358.23c0-21.694-17.574-39.249-39.249-39.249s-39.248 17.555-39.248 39.249v208.596l-108.21 108.207c-95.233-122.681-86.798-300.35 25.821-412.97M2392.3 1591.922c0-111.153-74.74-209.343-192.781-259.31 12.47-31.003 20.769-63.074 24.46-95.386 10.177-89.268-15.561-169.758-72.518-226.715-80.893-80.921-207.773-94.289-324.918-46.32-50.075-117.584-148.134-192.009-259.022-192.009-111.163 0-209.365 74.752-259.326 192.78-31.008-12.472-63.078-20.76-95.389-24.44-89.268-10.195-169.797 15.6-226.715 72.52-56.938 56.956-82.695 137.446-72.519 226.715 3.802 33.345 12.637 66.404 25.786 98.341-117.348 50.125-191.596 148.094-191.596 258.845 0 111.317 74.925 209.602 193.211 259.515-46.515 116.319-32.587 241.731 47.628 321.934 49.962 49.981 117.46 74.282 189.383 74.282 44.536 0 90.73-9.626 135.533-27.97 50.073 117.592 148.132 192.017 259.025 192.017 111.348 0 209.676-75.014 259.558-193.388 43.848 17.525 88.94 26.811 132.47 26.811 71.924 0 139.44-24.3 189.402-74.281 45.17-45.152 70.85-105.367 74.262-174.09 2.477-49.861-7.421-101.567-27.755-150.877 117.476-50.1 191.822-148.117 191.822-258.974m-78.497 0c0 80.424-58.447 152.425-150.306 189.383-16.103-24.559-34.77-47.916-56.114-69.26-60.358-60.373-157.484-97.255-238.837-119.203 80.543-21.962 176.529-58.705 236.308-118.513 22.257-22.25 41.498-46.527 58.017-72.005 92.224 36.896 150.932 109.002 150.932 189.598m-217.842-525.91c39.67 39.67 57.436 97.317 50.02 162.322-7.8 68.34-42.105 135.99-96.628 190.495-46.222 46.239-137.673 85.928-252.808 110.755-22.626-78.846-85.279-140.738-164.529-162.39 24.811-116.025 64.613-208.096 111.109-254.574 110.099-110.12 268.417-131.009 352.836-46.609m-525.93 685.78c-86.738 0-157.302-70.564-157.302-157.34 0-86.739 70.564-157.302 157.302-157.302s157.302 70.563 157.302 157.302c0 86.776-70.564 157.34-157.302 157.34m-2.51-901.112c80.43 0 152.448 58.48 189.412 150.388-24.27 15.926-47.648 34.39-69.309 56.051-60.349 60.306-97.257 157.47-119.198 238.79-21.931-80.348-58.7-176.501-118.499-236.298-22.259-22.256-46.545-41.501-72.03-58.017 36.88-92.223 108.994-150.914 189.624-150.914m-525.93 217.86c39.69-39.708 97.355-57.34 162.323-50.057 68.34 7.82 135.99 42.124 190.513 96.627 46.165 46.182 85.879 137.687 110.728 252.828-78.84 22.623-140.725 85.281-162.378 164.522-115.99-24.838-208.234-64.752-254.597-111.102-54.504-54.503-88.809-122.153-96.608-190.494-7.417-65.006 10.348-122.652 50.019-162.323M826.26 1596.943c0-80.376 58.428-152.357 150.254-189.326 16.127 24.455 34.726 47.802 56.166 69.242 60.424 60.396 158.112 97.394 238.835 119.231-81.715 22.202-176.663 58.816-236.305 118.446-22.492 22.49-41.57 46.823-57.874 72.097-92.306-36.873-151.076-109.018-151.076-189.69m217.842 525.949c-84.42-84.438-63.51-242.737 46.608-352.856 45.777-45.76 138.828-86.091 252.796-110.751 22.612 78.885 85.272 140.802 164.534 162.456-24.825 116.004-64.666 208.108-111.101 254.543-110.119 110.12-268.398 131.047-352.837 46.608m528.44 215.332c-80.404 0-152.397-58.442-189.375-150.293 24.27-15.925 47.614-34.481 69.272-56.147 60.373-60.358 97.315-157.742 119.2-238.774 21.903 80.227 58.692 176.466 118.497 236.283 22.49 22.49 46.814 41.563 72.087 57.867-36.863 92.306-109.005 151.064-189.68 151.064m525.93-217.862c-84.457 84.439-242.679 63.588-352.836-46.57-46.136-46.138-85.862-137.686-110.725-252.793 78.845-22.628 140.731-85.286 162.38-164.56 115.976 24.8 208.069 64.603 254.593 111.106 65.255 65.274 101.878 151.399 97.968 230.318-2.453 48.984-20.218 91.338-51.38 122.5"/></svg>