<svg xmlns="http://www.w3.org/2000/svg" width="3140.496" height="3188.902" viewBox="0 0 3140.496 3188.902"><path xmlns="http://www.w3.org/2000/svg" d="M453.941 2552.789a1437 1437 0 0 0 92.993 99.18c109.7 107.971 240.518 198.727 380.856 267.365 51.708 24.212 99.403 49.297 155.284 70.89 13.963 5.364 28.226 11.107 43.22 16.28a1956 1956 0 0 0 47.187 14.327c16.294 5.093 33.668 8.71 51.835 12.47 18.183 3.65 37.064 7.823 57.341 9.902a1447.7 1447.7 0 0 1-292.48-95.04 1488.8 1488.8 0 0 1-267.714-156.157c-167.358-122.6-310.505-280.01-415.064-459.95-4.316-5.379-10.868-15.628-18.722-28.686l-12.63-21.388-12.74-24.609c-8.473-17.072-18.231-34.398-25.704-51.185a1131 1131 0 0 0-21.039-43.6c32.494 80.934 70.003 151.73 112 219.05a1483 1483 0 0 0 61.388 90.391c-3.047-4.11-6.22-8.108-9.25-12.233a1508 1508 0 0 0 72.985 92.676zm-73.271-93.009-1.983-2.697zm-265.032-682.825-7.663-61.482c4.061 37.524 8.774 79.459 17.39 121.441l-5.19-29.813a380 380 0 0 1-4.537-30.146m1340.343 1261.9c105.543 10.678 216.227 7.49 324.642-9.662 108.479-17.089 214.577-47.393 313.218-86.456-181.67 71.446-374.478 103.226-563.097 97.911-25.244-.397-50.122 0-74.763-1.793"/><path xmlns="http://www.w3.org/2000/svg" d="m831.069 2822.946-4.11-2.618c1.38.872 2.73 1.76 4.11 2.618m153.126 84.362a1330.2 1330.2 0 0 0 271.68 92.278c-153.714-35.065-298.367-96.928-424.806-176.64 48.55 30.891 99.593 59.483 153.126 84.361m1918.64-1113.661c1.555-25.07 4.697-51.376 5.49-63.894 9.425-80.459 12.217-149.16 11.82-218.083-1.745-12.424-6.742-35.7-8.726-62.165-2.427-26.528-5.997-52.502-9.012-78.126-4.585-25.402-8.536-50.55-13.55-75.206 36.096 184.32 35.493 369.353 2.285 543.93a1507 1507 0 0 1 11.694-46.456"/><path xmlns="http://www.w3.org/2000/svg" d="M108.53 1419.01c13.455-109.478 42.093-216.195 69.336-287.292l-11.027 52.041c6.807-15.247 17.802-50.677 32.796-88.17l10.82-28.59 11.948-27.719c7.933-17.945 14.597-34.953 21.626-47.996-4.808 12.233-9.44 25.418-15.026 38.65-5.474 13.281-11.614 26.767-17.469 40.333l24.022-54.088a1775 1775 0 0 0-62.497 185.747c-17.977 69.05-32.193 141.623-39.84 206.77-2.222 16.248-3 32.114-4.443 47.25-1.064 15.137-2.904 29.576-3.047 43.22-.666 27.275-1.586 51.154-1.126 70.257 1.666 38.222 3.966 57.278 7.282 46.631 6.521-21.15 6.394-129.913 29.147-266.031 12.17-67.845 29.638-142.258 53.343-215.164 23.53-72.97 54.374-143.717 86.313-206.136l-9.393 20.5-8.647 21.118-17.707 42.696-16.247 44.109-8.267 22.244c-2.427 7.553-4.887 15.137-7.314 22.753-20.944 60.403-36.604 124.011-50.249 188.127l-8.87 48.424c-3.252 16.089-4.632 32.463-7.044 48.663-5.046 32.383-6.886 65.004-9.694 97.245-3.158 64.64-3.792 128.485 2.062 189.54-.238-14.503-.476-27.386-.27-39.857l1.825-37.365c.762-12.836.619-26.45 1.825-42.046 1.11-15.597 2.126-33.177 3.014-53.978 6.204-104.845 24.942-208.642 54.073-309.092 27.766-100.879 60.514-189.715 109.303-270.205l12.71-24.212c8.599-16.247 15.755-32.272 24.846-48.614 10.36-17.93 20.277-31.352 28.306-43.649 8.266-12.17 15.279-22.863 23.307-33.24l58.42-80.633c1.19-.142-.349 2.936-3.173 7.505a460 460 0 0 1 31.082-39.507c11.98-13.883 23.61-28.607 33.462-40.76 2.317-.112 4.57-.175 9.885-3.983 137.244-145.923 306.142-264.842 496.475-339.81l42.315-16.485 42.84-14.264 21.308-7.108 21.578-6.03 42.998-11.947c24.593-5.918 49.503-11.916 74.905-17.31l38.667-6.76c12.994-2.237 26.052-4.76 39.412-5.997 26.56-3.189 49.725-9.916 62.212-11.566 69.32-3.951 138.513-3.158 219.733 3.427 6.3.11 16.105.682 27.48 1.3 11.377.651 24.387.969 37.001 2.127 14.788 3.332 30.575 6.632 47.14 9.853 101.052 15.676 198.757 43.696 291.718 80.966l-.11-.444 35.603 14.184 36.334 16.787c24.926 10.852 49.345 24.736 74.572 37.81 12.661 6.457 24.656 14.343 37.096 21.482 12.217 7.521 25.005 14.185 36.81 22.404 23.926 15.898 48.186 31.114 70.542 48.107a1585 1585 0 0 1 104.718 82.473c.73.666 1.491 1.285 2.22 1.936l.667.603 23.118 20.975 22.117 22.07 22.134 22.086c7.33 7.41 14.12 15.343 21.213 22.99-3.427-5.553-3.3-7.79-3.173-9.995-10.932-10.472-23.863-22.864-36.636-35.065 21.309 19.389 39.904 36.921 55.168 51.232 5.886 7.521 12.312 14.915 18.405 22.99l18.817 24.848 20.008 25.846 19.912 27.798c35.319 45.028 66.496 93.199 96.103 142.321 13.708 25.196 28.829 49.678 41.03 75.746l19.246 38.65 17.326 39.619c4.982 8.457 3.046.349 3.665-1.079 19.437 46.996 35.065 95.865 49.218 145.114a1399.6 1399.6 0 0 1 54.072 273.076c3.57 21.864 5.093 43.981 8.25 65.893l-1.95 46.393c-.017 17.5.904 35.001.158 52.534l-2.031 52.771c-.254 11.9-1.967 24.895-2.967 39.016-1.333 14.089-2.03 29.289-4.062 45.314l-6.537 50.645c-2.094 17.755-6.14 36.001-9.25 55.073a1438 1438 0 0 1-68.416 245.643c-3.84 13.105-6.775 23.577-9.392 29.432-9.949 23.815-20.563 46.87-30.813 69.574-11.471 22.118-21.99 44.235-33.748 65.179a1366 1366 0 0 1-126.122 196.41c-5.33 6.965-10.297 14.041-15.66 20.578l-15.834 19.135c-10.472 12.36-19.833 24.72-29.766 35.446-19.848 21.451-36.508 41.347-52.136 56.31-17.898 18.69-16.295 19.563-3.904 10.55a556 556 0 0 0 25.514-20.023l33.668-30.368c12.312-10.742 24.101-22.863 35.461-34.287 11.234-11.503 22.467-21.991 31.13-31.48 17.469-18.896 28.94-30.558 26.497-25.37-28.195 53.074-79.538 118.538-154.586 190.952-38.286 35.335-81.363 73.731-132.31 110.748-24.846 19.372-52.47 37.095-80.633 56.452-29.099 17.818-58.832 37.334-91.342 54.66-71.145 38.745 53.39-23.403 56.754-23.99a363 363 0 0 1-37.715 26.02c-23.45 12.472-46.694 25.34-70.986 36.065-14.2 6.521-28.147 13.566-42.506 19.658l-43.3 17.802 22.912-9.012c46.837-18.61 90.613-40.538 130.136-62.228-14.851 8.98-31.098 19.373-48.9 28.75-19.087 9.87-38.841 20.658-58.658 30.29l-57.516 26.75c205.755-74.747 394.835-198.44 544.518-359.69 74.937-80.38 141.766-168.676 196.251-264.192a1490 1490 0 0 0 131.5-301.445c-50.042 157.553-128.057 302.286-221.827 424.664 170.468-230.174 272.108-512.373 285.579-803.41-.016 16.041-1.603 32.018-2.666 47.996-1.317 15.977-1.951 32.018-3.824 47.948-4.077 31.812-6.997 63.799-13.121 95.341-9.9 63.466-25.957 125.836-44.14 187.461 35.89-111.398 57.325-228.856 65.766-346.981 8.79-118.22 1.46-237.155-16.771-352.408 31.32 152.666 36.509 325.641 9.821 496.585 18.754-110.255 23.514-223.906 16.31-336.589-1.617-43.045-6.695-85.79-10.868-125.36-5.981-39.285-10.503-75.556-16.294-104.893 22.927 108.304 31.97 200.678 36.381 287.753-4.236-190.032-43.6-382.57-120.901-563.43 42.188 98.228 76.825 203.898 97.974 312.535 21.261 108.526 30.099 219.559 25.07 326.371-.239-12.502.285-24.99-.445-37.54l-1.698-37.936c4.554 172.15-21.959 342.777-74.508 503.234-26.37 80.22-58.944 158.171-98.372 232.347a1515.6 1515.6 0 0 1-135.816 211.276c58.277-68.067 119.807-164.28 168.914-269.966 48.884-105.908 85.17-220.447 110.128-320.485-36.715 179.64-109.589 356.898-215.322 515.197-105.448 158.426-243.565 297.717-403.371 404.624-159.616 107.24-340.715 181.464-526.557 218.131a1501 1501 0 0 1-280.153 28.702 1499 1499 0 0 1-275.456-24.037l47.679 9.06c15.898 3.014 32.018 4.68 48.011 7.06 31.987 5.14 64.338 7.076 96.579 10.043 64.624 3.634 129.596 4.855 194.363-.079 64.877-3.443 129.342-13.121 193.506-24.942 31.828-7.235 64.037-13.153 95.468-22.435 15.771-4.41 31.733-8.266 47.393-13.17l46.885-15.199c-23.673 7.33-48.583 17.04-75.19 24.164l-33.336 9.806a1456 1456 0 0 0 204.835-71.335 1419 1419 0 0 0 89.66-42.919 1534 1534 0 0 1-169.992 77.301 1561.4 1561.4 0 0 1-343.665 85.393c-17.612 2.792-33.669 3.665-48.06 5.172l-38.523 3.808c-22.673 1.793-39.412 2.602-51.121 3.888-23.435 2.332-26.767 4.506-17.437 6.298 9.313 1.793 31.272 3.221 58.277 3.983 26.925-.159 58.864-1.603 87.915-4.252 291.894-29.94 559.893-144.495 774.66-315.995 214.91-171.531 379.508-399.388 471.247-657.93 5.76-15.01 10.186-30.496 14.978-45.854 4.649-15.407 9.79-30.654 13.994-46.203 7.79-31.257 17.009-62.149 22.974-93.882l9.822-47.36 7.727-47.79 3.823-23.91 2.73-24.07 5.426-48.139c11.074-128.74 6.695-258.86-12.884-386.552-10.472-72.255-28.877-158.045-52.597-234.457l-18.246-55.279c-6.347-17.564-13.09-34.128-19.087-49.71l-8.838-22.45-9.06-20.166-15.565-33.7c-49.725-100.895-112.207-197.124-185.35-286.626-73.065-89.534-157.014-172.436-251.657-244.628l-35.604-27.02-36.921-25.514-18.5-12.788-19.088-11.995-38.349-23.926c-52.28-30.21-105.828-59.325-162.28-83.473-55.866-25.355-114.334-45.933-173.849-64.338-30.066-8.25-59.99-17.453-90.819-23.784-15.358-3.316-30.59-7.346-46.123-10.123l-46.71-8.266c-111.7-19.659-227.89-24.34-343.968-15.613-116.015 8.965-232.521 30.987-344.237 69.003l-41.807 14.486c-13.979 4.712-27.45 10.821-41.205 16.168-13.614 5.696-27.529 10.678-40.888 16.961l-40.174 18.611c-13.518 5.966-26.576 12.82-39.602 19.754l-39.174 20.579-38.111 22.403c-12.693 7.489-25.482 14.803-37.635 23.133L754.878 344c-12.407 7.886-23.894 17.104-35.874 25.577-11.757 8.79-23.958 16.977-35.318 26.243l-34.224 27.56c-11.566 8.964-22.483 18.69-33.367 28.432l-32.732 29.035-31.273 30.448c-10.408 10.139-20.928 20.166-30.622 30.955-79.824 84.06-149.953 175.768-207.31 272.807a1579 1579 0 0 0-137.514 300.858c-69.415 204.993-89.327 412.89-80.061 600.669-2-77.301-2.333-188.16 11.947-297.574m2239.252 1435.05a1536 1536 0 0 0 139.07-101.37c-45.061 37.11-91.36 71.382-139.07 101.37m638.098-861.26c-4.744 14.296-8.758 28.417-13.994 41.903l-15.184 40.031-7.394 19.801-8.14 19.532a1722 1722 0 0 0-15.818 39.682 1544 1544 0 0 1-104.512 211.816c-39.999 67.829-86.36 131.39-135.895 191.03-24.466 30.131-51.122 58.072-77.333 86.012l-40.951 40.031c-13.439 13.455-28.147 25.45-42.078 38.143-11.677 10.155-23.45 20.087-35.302 29.86a1439 1439 0 0 0 125.28-116.014 1425 1425 0 0 1-185.461 161.646c-16.438 11.456-32.32 23.736-49.392 34.525l-51.519 32.828-54.421 30.924c-18.516 10.28-38.064 19.42-57.659 29.432a1177 1177 0 0 1 42.602-23.927c16.2-8.996 33.192-19.627 49.788-29.353 16.723-9.535 31.923-20.007 44.553-28.765 12.63-8.759 22.53-16.025 27.687-20.722-7.362 4.998-14.851 9.79-22.308 14.66a1467 1467 0 0 0 23.91-16.104c-.333.365-1.031.936-1.602 1.444 173.451-118.458 321.214-274.123 431.93-451.588 111.207-177.307 183.574-377.319 213.561-580.725-6.505 81.584-21.451 146.732-40.348 203.898M2746.266 754.432a1465.6 1465.6 0 0 1 123.33 227.713c3.966 8.711 7.71 17.549 11.407 26.402 78.745 192.84 114.572 399.706 109.32 603.493 1.333-67.432-3.142-134.832-10.615-201.661-8.457-77.016-24.085-153.11-44.806-227.54-40.65-149.255-106.67-290.72-190.476-419.681 7.695 10.63 15.803 22.15 24.196 34.366a521 521 0 0 1 25.227 39.08l-10.122-17.597-10.932-17.12-21.864-34.207c-14.883-22.594-31.019-44.363-46.552-66.512-16.85-21.166-32.827-43.03-50.36-63.64-13.264-15.12-25.973-30.75-39.428-45.68 47.472 50.059 92.041 103.767 131.675 162.583m-1114.58-641.7c23.276 1.237 46.6 3.506 69.923 5.252 19.103 1.602 38.11 4.426 56.928 6.552a264 264 0 0 1 19.103 1.46c7.473 1.031 16.406 2.951 28.068 5.617 86.773 14.47 165.946 36.223 222.145 58.69 107.86 40.824 208.214 91.612 299.24 150.27 91.057 58.547 172.769 125.138 241.898 197.87 31.86 34.572 22.562 27.036 4.998 10.249l26.37 27.988c-11.678-11.646-23.149-23.45-35.001-34.842l-36.509-33.161c8.886 7.775 30.432 26.386 45.14 40.015-117.236-119.617-254.274-218.94-402.609-292.005-148.446-73.033-308.3-118.14-468.09-136.149 25.672 2.856 38.27 3.49 50.265 3.808-17.215-2.015-34.477-4.776-51.946-6.362-23.467-1.54-46.885-3.634-70.177-4.776l-69.178-1.634c22.911-.016 46.124.618 69.432 1.158"/><path xmlns="http://www.w3.org/2000/svg" d="m1934.035 3024.813 6.76-1.983c-7.077 1.904-14.043 3.998-21.167 5.807 4.824-1.206 9.663-2.38 14.407-3.824m705.768-611.474c67.194-88.645 126.566-194.569 164.47-285.816l-.46.095c-96.165 227.238-252.148 422.997-446.796 567.127a2525 2525 0 0 0 101.83-74.62c42.807-44.742 114.444-117.506 180.956-206.786m-1984.47 264.89c113.793 101.735 251.022 190.269 403.767 249.91 59.562 22.42 120.346 42.062 182.51 55.898 30.845 7.965 62.34 12.883 93.597 18.738 15.66 2.777 31.526 4.316 47.266 6.537 15.77 2.047 31.51 4.363 47.392 5.283-71.7-7.949-142.876-19.848-212.165-38.713-69.24-18.802-137.117-42.046-202.597-70.59a1545 1545 0 0 1-188.715-100.18c-60.07-38.206-117.03-80.871-171.055-126.884m1404.602 181.368-35.208 13.82-35.953 11.995c-23.8 8.567-48.345 14.977-72.827 21.784 24.61-6.188 49.36-11.963 73.367-19.896l36.222-11.075 35.382-12.931c-1.364-.698-9.424.872-.983-3.697m-415.604 90.248c-18.405 1.57-36.905 1.428-55.437 1.618-18.532.222-37.096.619-55.675-.603l25.005 2.348c7.648.492 14.534 1.08 20.547 1.793 21.912-1.872 43.664-2.395 65.56-5.156m-733.693-170.659c21.277 12.487 43.87 23.482 66.29 35.604 5.617 3.078 15.803 6.585 28.575 11.25-27.306-11.726-53.47-26.26-80.061-39.746-13.17-6.997-25.847-14.835-38.762-22.133-12.883-7.362-25.72-14.708-37.905-22.927l14.867 9.932 15.502 9.266zm663.717-2069.017a9.43 9.43 0 0 0-11.156.083c-1.762 1.31-43.135 32.476-42.868 72.452.273 39.975 42.074 70.58 43.854 71.861a9.38 9.38 0 0 0 5.525 1.79 9.4 9.4 0 0 0 5.631-1.863c1.762-1.301 43.14-32.477 42.868-72.453-.273-39.984-42.074-70.58-43.854-71.87m-4.774 124.547c-11.741-10.21-30.212-30.78-30.36-52.142-.152-22.856 19.72-43.563 29.692-52.5 10.09 8.799 30.249 29.238 30.405 52.095.157 22.893-19.784 43.628-29.737 52.547m-304.003 201.15h-.388c-39.98.277-70.584 42.079-71.866 43.859a9.44 9.44 0 0 0 .078 11.151c1.301 1.762 32.279 42.872 72.065 42.872h.388c39.98-.277 70.584-42.079 71.866-43.859a9.44 9.44 0 0 0-.079-11.151c-1.3-1.762-32.278-42.872-72.064-42.872m.147 78.992h-.262c-22.75 0-43.333-19.757-52.243-29.691 8.808-10.091 29.243-30.254 52.1-30.41h.262c22.75 0 43.333 19.756 52.243 29.69-8.808 10.091-29.243 30.254-52.1 30.41m307.32 201.501c-3.34-2.398-7.85-2.38-11.152.083-1.761 1.301-43.143 32.468-42.871 72.452.267 39.976 42.069 70.57 43.85 71.862a9.43 9.43 0 0 0 5.524 1.78 9.4 9.4 0 0 0 5.627-1.863c1.761-1.3 43.143-32.467 42.876-72.452-.272-39.975-42.074-70.57-43.854-71.862m-4.778 124.539c-11.742-10.211-30.212-30.77-30.355-52.133-.157-22.865 19.72-43.563 29.69-52.5 10.092 8.799 30.25 29.229 30.407 52.085.152 22.893-19.79 43.628-29.742 52.548m303.109-403.712c-39.976.268-70.585 42.07-71.867 43.85a9.44 9.44 0 0 0 .079 11.15c1.3 1.763 32.278 42.873 72.064 42.873h.388c39.975-.268 70.584-42.07 71.866-43.85a9.45 9.45 0 0 0-.074-11.151c-1.305-1.771-32.273-42.761-72.456-42.872m.535 78.983c-23.129.516-43.628-19.776-52.548-29.738 10.211-11.741 30.775-30.207 52.142-30.355h.277c22.777 0 43.388 19.822 52.27 29.737-10.21 11.742-30.775 30.208-52.141 30.356M1367.13 752.2c-34.634-34.644-153.57-42.964-167.017-43.794-2.772-.11-5.35.83-7.264 2.748s-2.915 4.557-2.749 7.26c.835 13.448 9.16 132.396 43.79 167.022 18.369 18.374 42.489 27.551 66.618 27.551 21.164 0 42.33-7.079 59.608-21.213l15.072 15.07c1.844 1.845 4.26 2.767 6.677 2.767s4.834-.922 6.678-2.767a9.44 9.44 0 0 0 0-13.356l-15.07-15.07c30.246-36.967 28.136-91.745-6.342-126.218m-119.884 119.88c-20.27-20.274-31.375-86.353-36.025-129.194l90.477 90.473h-31.3c-5.217 0-9.446 4.225-9.446 9.445s4.23 9.445 9.445 9.445h50.193l26.042 26.041c-29.526 22.916-72.28 20.9-99.386-6.21m86.702-33.184v-50.198c0-5.22-4.229-9.445-9.445-9.445s-9.445 4.224-9.445 9.445v31.31l-90.49-90.486c42.838 4.643 108.915 15.742 129.207 36.034 27.101 27.101 29.131 69.856 6.214 99.38zm54.594 439.994c3.69-3.689 3.69-9.666 0-13.355s-9.666-3.69-13.355 0l-15.073 15.071c-36.97-30.238-91.746-28.147-126.225 6.337-34.63 34.626-42.955 153.574-43.79 167.023a9.45 9.45 0 0 0 2.75 7.259 9.42 9.42 0 0 0 6.677 2.767c.194 0 .387-.01.586-.019 13.448-.83 132.383-9.15 167.018-43.794 34.478-34.473 36.588-89.25 6.341-126.218zm-141.297 21.409c14.684-14.684 33.975-22.026 53.262-22.026a75.14 75.14 0 0 1 46.125 15.816l-26.043 26.04h-50.193c-5.216 0-9.445 4.225-9.445 9.446s4.23 9.445 9.445 9.445h31.301l-90.48 90.476c4.642-42.84 15.741-108.914 36.028-129.197m106.529 106.524c-20.276 20.276-86.36 31.38-129.203 36.03l90.486-90.482v31.31c0 5.22 4.23 9.445 9.445 9.445s9.445-4.224 9.445-9.445v-50.198l26.04-26.04c22.918 29.524 20.888 72.279-6.213 99.38m421.877-126.219-15.071-15.07c-3.69-3.689-9.667-3.689-13.356 0s-3.69 9.667 0 13.357l15.07 15.07c-30.245 36.968-28.136 91.745 6.343 126.218 34.635 34.644 153.57 42.964 167.018 43.794a9.42 9.42 0 0 0 7.264-2.749 9.45 9.45 0 0 0 2.748-7.258c-.835-13.449-9.16-132.397-43.79-167.023-34.48-34.485-89.255-36.591-126.226-6.339m59.608-2.331c19.287 0 38.578 7.342 53.263 22.026 20.27 20.274 31.374 86.353 36.024 129.194l-90.477-90.473h31.301c5.216 0 9.445-4.224 9.445-9.445s-4.229-9.445-9.445-9.445h-50.192l-26.043-26.04a75.14 75.14 0 0 1 46.124-15.817m-59.48 29.17 26.04 26.04v50.198c0 5.22 4.229 9.445 9.445 9.445s9.445-4.224 9.445-9.445v-31.31l90.49 90.486c-42.838-4.643-108.914-15.742-129.206-36.034-27.102-27.101-29.132-69.856-6.214-99.38m-28.555-400.599c1.845 1.845 4.261 2.767 6.678 2.767s4.833-.922 6.678-2.767l15.072-15.071c17.278 14.135 38.438 21.214 59.607 21.214 24.125 0 48.254-9.187 66.618-27.551 34.63-34.626 42.955-153.574 43.79-167.023a9.45 9.45 0 0 0-2.749-7.259c-1.91-1.918-4.515-2.84-7.263-2.748-13.449.83-132.383 9.15-167.018 43.794-34.479 34.473-36.588 89.25-6.342 126.218l-15.071 15.07a9.44 9.44 0 0 0 0 13.356m141.298-34.764c-27.103 27.11-69.858 29.133-99.387 6.21l26.043-26.04h50.192c5.216 0 9.445-4.225 9.445-9.446s-4.229-9.445-9.445-9.445h-31.301l90.48-90.476c-4.642 42.84-15.741 108.914-36.027 129.197m-106.53-106.524c20.276-20.276 86.36-31.38 129.204-36.03l-90.487 90.482v-31.31c0-5.22-4.23-9.445-9.445-9.445s-9.445 4.224-9.445 9.445v50.198l-26.04 26.04c-22.918-29.524-20.888-72.279 6.214-99.38m-16.234 320.024c0-26.748-17.986-50.377-46.392-62.4 3-7.462 4.998-15.18 5.886-22.955 2.449-21.482-3.745-40.852-17.451-54.558-19.467-19.474-50-22.69-78.19-11.147-12.05-28.296-35.648-46.206-62.333-46.206-26.751 0-50.383 17.988-62.406 46.391-7.462-3-15.179-4.995-22.955-5.88-21.482-2.454-40.86 3.753-54.558 17.45-13.702 13.707-19.9 33.077-17.45 54.559.914 8.024 3.04 15.98 6.204 23.665-28.24 12.062-46.107 35.638-46.107 62.29 0 26.788 18.031 50.44 46.496 62.451-11.194 27.992-7.842 58.172 11.461 77.472 12.024 12.028 28.266 17.876 45.575 17.876 10.717 0 21.833-2.316 32.615-6.731 12.05 28.298 35.647 46.208 62.333 46.208 26.796 0 50.458-18.052 62.462-46.538 10.552 4.218 21.403 6.452 31.878 6.452 17.308 0 33.556-5.848 45.579-17.875 10.87-10.866 17.05-25.356 17.87-41.894.597-12-1.785-24.442-6.678-36.308 28.27-12.057 46.16-35.644 46.16-62.321m-18.89 0c0 19.354-14.065 36.681-36.17 45.575-3.876-5.91-8.368-11.53-13.504-16.667-14.525-14.529-37.898-23.404-57.475-28.686 19.382-5.285 42.48-14.127 56.866-28.52 5.356-5.354 9.986-11.196 13.962-17.327 22.193 8.879 36.32 26.23 36.32 45.626m-52.423-126.557c9.546 9.546 13.822 23.419 12.037 39.062-1.877 16.446-10.132 32.726-23.253 45.842-11.123 11.127-33.13 20.678-60.837 26.653-5.445-18.975-20.522-33.869-39.593-39.079 5.97-27.921 15.548-50.078 26.737-61.262 26.495-26.5 64.594-31.527 84.909-11.216m-126.563 165.03c-20.873 0-37.854-16.981-37.854-37.863 0-20.874 16.98-37.854 37.854-37.854s37.854 16.98 37.854 37.854c0 20.882-16.98 37.863-37.854 37.863m-.604-216.85c19.355 0 36.686 14.074 45.581 36.191-5.84 3.833-11.466 8.276-16.679 13.489-14.522 14.512-23.404 37.894-28.684 57.463-5.278-19.335-14.126-42.474-28.516-56.864-5.357-5.355-11.201-9.987-17.334-13.961 8.875-22.193 26.229-36.317 45.632-36.317m-126.563 52.428c9.551-9.555 23.428-13.798 39.062-12.046 16.446 1.882 32.726 10.137 45.847 23.253 11.11 11.114 20.666 33.134 26.646 60.842-18.973 5.444-33.865 20.523-39.076 39.591-27.912-5.977-50.11-15.582-61.267-26.736-13.117-13.116-21.372-29.396-23.249-45.841-1.785-15.644 2.49-29.516 12.037-39.063M1388.9 1086.79c0-19.342 14.06-36.664 36.158-45.56 3.88 5.884 8.356 11.503 13.516 16.662 14.54 14.534 38.049 23.438 57.474 28.693-19.664 5.343-42.513 14.154-56.866 28.503-5.412 5.412-10.003 11.268-13.927 17.35-22.213-8.873-36.355-26.234-36.355-45.648m52.422 126.568c-20.315-20.32-15.283-58.414 11.216-84.914 11.016-11.012 33.409-20.717 60.835-26.652 5.441 18.984 20.52 33.884 39.594 39.095-5.974 27.915-15.562 50.08-26.736 61.254-26.5 26.5-64.589 31.536-84.909 11.217m127.167 51.818c-19.349 0-36.674-14.064-45.572-36.167 5.84-3.832 11.458-8.298 16.67-13.512 14.528-14.525 23.418-37.96 28.685-57.46 5.27 19.307 14.124 42.466 28.516 56.86 5.412 5.413 11.265 10.003 17.347 13.926-8.87 22.213-26.232 36.353-45.646 36.353m126.563-52.427c-20.324 20.32-58.4 15.302-84.909-11.207-11.102-11.103-20.662-33.134-26.645-60.834 18.974-5.445 33.866-20.524 39.076-39.6 27.91 5.967 50.07 15.546 61.267 26.737 15.703 15.708 24.516 36.433 23.575 55.425-.59 11.788-4.865 21.98-12.364 29.479"/><path d="M895.313 1835.57h84.443l-144.413 346.722h-68.587l-143.38-346.721h84.098l93.403 255.735zm194.323 353.27c-56.18 0-106.846-26.882-106.846-94.437 0-74.102 60.317-97.194 132.695-110.292l52.389-9.65c22.748-4.48 32.053-14.82 32.053-31.364 0-42.738-33.431-56.87-67.899-56.87-37.568 0-68.243 16.544-73.413 61.005l-71.346-13.097c12.063-71.69 63.763-104.777 149.584-104.777 69.277 0 139.243 24.816 139.243 122.355v134.418c0 32.743 8.616 42.048 32.743 42.048h5.515v54.112h-37.568c-38.947 0-62.385-13.786-70.312-45.84h-3.79c-26.884 37.911-71.346 52.389-113.05 52.389zm18.612-62.383c54.456 0 96.85-40.327 96.85-103.743l-88.578 19.646c-36.533 6.893-56.87 19.302-56.87 45.495 0 27.228 21.369 38.602 48.598 38.602m249.81 55.835v-529.4h79.962v529.4zm473.847-179.22-1.034 19.991h-263.659c3.102 68.933 47.563 102.02 100.297 102.02 38.602 0 69.965-19.645 85.821-54.455l72.38 12.408c-24.127 66.865-84.097 105.81-157.511 105.81-106.501 0-178.884-66.174-178.884-179.907s74.102-180.26 176.466-180.26c95.472 0 165.782 55.835 166.128 174.398zm-165.79-115.461c-48.597 0-84.443 23.436-95.472 76.17h181.637c-6.204-51.355-40.326-76.17-86.165-76.17m293.583 6.194c16.889-34.466 61.35-61.695 111.67-62.039v72.38c-70.655 0-108.567 25.849-108.567 101.33v176.82h-79.617v-346.722h76.514v58.248zm183.292-124.41c-26.883 0-48.941-22.058-48.941-48.596 0-26.883 22.058-48.598 48.941-48.598 26.195 0 48.597 21.715 48.597 48.598 0 26.538-22.402 48.597-48.597 48.597m-40.67 412.897v-346.721h79.616v346.721zm274.626 6.549c-75.48 0-133.04-32.053-144.757-96.16l67.209-18.956c9.306 39.292 38.602 58.248 77.548 58.248 28.607 0 59.627-10.34 58.937-43.773-.69-39.292-51.01-44.116-106.502-62.728-44.806-14.476-88.233-34.812-88.233-95.126 0-69.622 57.558-100.987 129.248-100.987 65.485 0 119.942 26.539 132.006 90.991l-62.729 14.82c-9.306-36.533-36.878-51.009-68.933-51.009-28.607 0-56.524 11.03-56.524 39.637 0 33.087 40.67 39.98 84.787 51.699 54.112 14.131 113.394 34.812 113.394 108.223 0 76.86-64.107 105.122-135.453 105.122zM908.297 2478.66c-55.22 0-96.018-37.55-96.018-96.538s40.798-96.408 96.018-96.408c41.837 0 75.36 21.438 88.742 57.04l-36.381 13.252c-8.316-21.828-28.194-34.431-52.361-34.431-32.352 0-57.17 22.607-57.17 60.547s24.817 60.677 57.17 60.677c24.167 0 44.045-12.733 52.361-34.562l36.38 13.253c-13.383 35.6-46.904 57.17-88.741 57.17m203.86 0c-55.22 0-96.018-37.679-96.018-96.538 0-58.988 40.798-96.408 96.018-96.408 55.09 0 95.888 37.42 95.888 96.408 0 58.858-40.798 96.539-95.888 96.539m0-35.73c32.352 0 57.17-22.737 57.17-60.807 0-37.94-24.817-60.547-57.17-60.547s-57.17 22.607-57.17 60.547c0 38.07 24.817 60.808 57.17 60.808m257.397 33.132-13.643-38.72h-78.867l-13.643 38.72h-39.887l69.122-187.744h47.685l69.122 187.744h-39.888zm-81.082-71.331h56l-27.935-79.647zm232.315 73.93c-55.22 0-96.019-37.55-96.019-96.539s40.798-96.408 96.019-96.408c41.837 0 75.36 21.438 88.741 57.04l-36.38 13.252c-8.316-21.828-28.195-34.431-52.361-34.431-32.352 0-57.17 22.607-57.17 60.547s24.816 60.677 57.17 60.677c24.166 0 44.045-12.733 52.36-34.562l36.381 13.253c-13.383 35.6-46.904 57.17-88.741 57.17zm239.075-190.343h38.979v187.744h-38.98v-77.178h-79.386v77.178h-38.98V2288.32h38.98v76.658h79.387zm87.568 187.744V2288.32h38.98v187.744zm215.686-187.744h38.849v187.744h-45.086l-83.156-134.219v134.22h-38.848V2288.32h44.565l83.676 133.434zm168.647 190.343c-54.181 0-94.07-37.42-94.07-96.019 0-59.378 40.799-96.928 96.02-96.928 36.25 0 66.264 15.982 82.634 44.176l-34.172 18.19c-9.875-19.229-27.545-28.454-48.464-28.454-32.483 0-56.909 22.348-56.909 62.106 0 38.33 22.868 63.016 58.34 63.016 24.036 0 46.124-11.953 51.451-39.369h-51.322v-31.313h88.223v101.995h-30.663v-25.986c-12.084 17.8-32.352 28.584-61.067 28.584z"/></svg>