<svg xmlns="http://www.w3.org/2000/svg" width="3140.496" height="3188.902" viewBox="0 0 3140.496 3188.902"><g transform="translate(94.451 94.451)scale(9.4451)"><defs><linearGradient id="a"><stop offset="0" stop-color="#fe8dc6"/><stop offset="1" stop-color="#fed1c7"/></linearGradient></defs><g fill="#fff"><path xmlns="http://www.w3.org/2000/svg" d="M38.061 260.277a152 152 0 0 0 9.846 10.5c11.614 11.432 25.464 21.04 40.323 28.307 5.474 2.564 10.524 5.22 16.44 7.506 1.479.568 2.989 1.176 4.576 1.724 1.601.507 3.261 1.014 4.996 1.516 1.725.54 3.565.923 5.488 1.32 1.925.387 3.924.829 6.071 1.05a153.3 153.3 0 0 1-30.966-10.063 157.6 157.6 0 0 1-28.344-16.533c-17.72-12.98-32.875-29.646-43.945-48.698-.457-.569-1.15-1.654-1.982-3.037l-1.338-2.264-1.348-2.606c-.897-1.807-1.93-3.642-2.722-5.419a120 120 0 0 0-2.227-4.616c3.44 8.569 7.411 16.064 11.858 23.192a157 157 0 0 0 6.5 9.57c-.323-.435-.66-.858-.98-1.295a160 160 0 0 0 7.727 9.812zm-7.758-9.848-.21-.285zm-28.06-72.294-.811-6.51c.43 3.974.929 8.413 1.84 12.858l-.548-3.156a40 40 0 0 1-.48-3.192M144.152 311.74c11.174 1.13 22.893.793 34.371-1.023 11.486-1.81 22.719-5.018 33.162-9.154-19.234 7.565-39.647 10.93-59.618 10.367-2.672-.042-5.306 0-7.915-.19"/><path xmlns="http://www.w3.org/2000/svg" d="m77.99 288.88-.436-.278.435.277m16.211 8.932a141 141 0 0 0 28.765 9.77c-16.275-3.713-31.59-10.263-44.977-18.703 5.14 3.271 10.545 6.298 16.213 8.932M297.338 179.9c.164-2.654.497-5.439.581-6.764.998-8.519 1.293-15.793 1.251-23.09-.184-1.315-.713-3.78-.923-6.582-.257-2.808-.635-5.558-.955-8.271-.485-2.69-.903-5.352-1.434-7.963 3.821 19.515 3.758 39.106.242 57.589a160 160 0 0 1 1.238-4.919"/><path xmlns="http://www.w3.org/2000/svg" d="M1.49 140.238c1.425-11.591 4.457-22.89 7.342-30.417l-1.168 5.51c.72-1.615 1.885-5.366 3.472-9.335l1.146-3.028 1.265-2.934c.84-1.9 1.545-3.7 2.29-5.082-.51 1.295-1 2.691-1.591 4.092-.58 1.406-1.23 2.834-1.85 4.27l2.544-5.726a188 188 0 0 0-6.617 19.666c-1.904 7.31-3.409 14.994-4.219 21.892-.235 1.72-.317 3.4-.47 5.002-.112 1.603-.307 3.132-.322 4.576-.071 2.888-.168 5.416-.12 7.439.177 4.046.42 6.064.771 4.937.69-2.24.677-13.755 3.086-28.166 1.289-7.183 3.138-15.062 5.648-22.78 2.491-7.726 5.757-15.217 9.138-21.825l-.994 2.17-.916 2.236-1.874 4.52-1.72 4.67-.876 2.355q-.387 1.2-.774 2.41c-2.218 6.395-3.876 13.13-5.32 19.917l-.94 5.127c-.344 1.704-.49 3.437-.745 5.152-.534 3.429-.73 6.883-1.027 10.296-.334 6.844-.401 13.604.219 20.068-.025-1.536-.05-2.9-.029-4.22l.193-3.956c.081-1.36.066-2.8.194-4.452.117-1.651.225-3.512.319-5.715.657-11.1 2.64-22.09 5.725-32.725 2.94-10.68 6.407-20.086 11.572-28.608l1.346-2.563c.91-1.72 1.668-3.417 2.63-5.147 1.097-1.898 2.147-3.32 2.997-4.621.876-1.289 1.618-2.421 2.468-3.52l6.185-8.537c.126-.015-.037.311-.336.795a49 49 0 0 1 3.291-4.183c1.268-1.47 2.5-3.029 3.543-4.316.245-.011.484-.018 1.046-.421 14.531-15.45 32.413-28.04 52.565-35.978l4.48-1.745 4.535-1.51 2.256-.753 2.285-.638 4.552-1.265c2.604-.627 5.242-1.262 7.931-1.833l4.094-.715c1.376-.237 2.758-.504 4.173-.635 2.812-.338 5.264-1.05 6.586-1.225 7.34-.418 14.665-.334 23.265.363.666.012 1.705.072 2.91.138 1.204.069 2.581.102 3.917.225 1.565.353 3.237.702 4.99 1.043 10.7 1.66 21.044 4.626 30.886 8.572l-.012-.047 3.77 1.502 3.847 1.777c2.639 1.15 5.224 2.62 7.895 4.003 1.34.684 2.61 1.519 3.928 2.275 1.293.796 2.647 1.502 3.897 2.372 2.533 1.683 5.102 3.294 7.468 5.093a168 168 0 0 1 11.087 8.732l.236.205.07.064 2.448 2.22 2.341 2.337 2.344 2.339c.776.784 1.495 1.624 2.246 2.434-.363-.588-.35-.825-.336-1.059-1.158-1.108-2.527-2.42-3.879-3.712 2.256 2.053 4.225 3.909 5.84 5.424.624.796 1.304 1.58 1.95 2.434l1.992 2.63 2.118 2.737 2.108 2.943c3.74 4.768 7.04 9.868 10.175 15.069 1.452 2.667 3.053 5.26 4.344 8.02l2.038 4.091 1.834 4.195c.528.895.323.037.388-.114 2.058 4.976 3.713 10.15 5.211 15.364a148 148 0 0 1 5.725 28.912c.378 2.315.54 4.656.874 6.976l-.207 4.912c-.002 1.853.096 3.706.017 5.562l-.215 5.587c-.027 1.26-.208 2.636-.314 4.131-.141 1.492-.215 3.101-.43 4.798l-.692 5.362c-.222 1.88-.65 3.811-.98 5.83a152.3 152.3 0 0 1-7.243 26.008c-.407 1.387-.717 2.496-.995 3.116-1.053 2.522-2.177 4.962-3.262 7.366-1.214 2.342-2.328 4.684-3.573 6.901a144.6 144.6 0 0 1-13.353 20.795c-.565.737-1.09 1.487-1.658 2.179l-1.677 2.026c-1.108 1.308-2.1 2.617-3.151 3.752-2.102 2.272-3.865 4.378-5.52 5.962-1.895 1.979-1.725 2.071-.413 1.117a59 59 0 0 0 2.7-2.12l3.566-3.215c1.303-1.137 2.551-2.42 3.754-3.63 1.19-1.218 2.379-2.328 3.296-3.333 1.85-2 3.064-3.235 2.805-2.686-2.985 5.62-8.42 12.55-16.367 20.217-4.053 3.741-8.614 7.806-14.008 11.725-2.63 2.051-5.555 3.928-8.537 5.977-3.08 1.887-6.229 3.953-9.67 5.787-7.533 4.103 5.652-2.477 6.008-2.54a38 38 0 0 1-3.993 2.755c-2.483 1.32-4.944 2.683-7.516 3.819-1.503.69-2.98 1.436-4.5 2.081l-4.584 1.885 2.425-.954c4.96-1.97 9.594-4.292 13.779-6.589-1.573.951-3.293 2.051-5.178 3.044-2.02 1.045-4.112 2.187-6.21 3.207l-6.09 2.832c21.785-7.914 41.804-21.01 57.651-38.082 7.934-8.51 15.01-17.858 20.778-27.971a157.8 157.8 0 0 0 13.923-31.916c-5.298 16.681-13.558 32.005-23.486 44.962 18.048-24.37 28.81-54.248 30.236-85.061-.002 1.698-.17 3.39-.283 5.081-.139 1.692-.206 3.39-.404 5.077-.432 3.368-.741 6.754-1.39 10.094-1.048 6.72-2.748 13.323-4.673 19.847 3.8-11.794 6.07-24.23 6.963-36.736.93-12.517.155-25.11-1.776-37.312 3.316 16.164 3.866 34.478 1.04 52.576 1.986-11.673 2.49-23.706 1.727-35.636-.171-4.557-.709-9.083-1.15-13.272-.634-4.16-1.113-8-1.726-11.106 2.428 11.467 3.385 21.247 3.852 30.466-.448-20.12-4.616-40.505-12.8-59.653 4.466 10.4 8.133 21.587 10.373 33.09 2.25 11.49 3.186 23.245 2.654 34.554-.025-1.324.03-2.646-.047-3.975l-.18-4.016c.482 18.226-2.325 36.291-7.888 53.28-2.792 8.493-6.241 16.746-10.416 24.6a160.5 160.5 0 0 1-14.38 22.368c6.171-7.206 12.685-17.393 17.885-28.582 5.175-11.213 9.017-23.34 11.66-33.932-3.888 19.02-11.603 37.787-22.798 54.547-11.164 16.773-25.787 31.52-42.707 42.84-16.899 11.354-36.073 19.212-55.749 23.094a159 159 0 0 1-29.661 3.039 158.7 158.7 0 0 1-29.164-2.545l5.048.96c1.683.318 3.39.495 5.083.747 3.387.544 6.812.749 10.225 1.063 6.842.385 13.721.514 20.579-.008 6.869-.365 13.694-1.39 20.487-2.641 3.37-.766 6.78-1.393 10.108-2.375 1.67-.467 3.36-.876 5.017-1.395l4.964-1.609c-2.506.776-5.143 1.804-7.96 2.558l-3.53 1.039a154 154 0 0 0 21.687-7.553 150 150 0 0 0 9.493-4.544 162 162 0 0 1-17.998 8.184 165.3 165.3 0 0 1-36.386 9.041c-1.864.296-3.564.388-5.088.548l-4.078.403c-2.401.19-4.173.275-5.413.411-2.481.247-2.834.478-1.846.667.986.19 3.31.341 6.17.422 2.85-.017 6.232-.17 9.308-.45 30.904-3.17 59.279-15.299 82.017-33.456 22.754-18.161 40.18-42.285 49.893-69.659.61-1.589 1.079-3.228 1.586-4.854.492-1.631 1.037-3.246 1.482-4.892.825-3.31 1.8-6.58 2.432-9.94l1.04-5.014.818-5.06.405-2.531.289-2.549.574-5.096a172.7 172.7 0 0 0-1.364-40.927c-1.108-7.65-3.057-16.733-5.568-24.823l-1.932-5.852c-.672-1.86-1.386-3.614-2.021-5.263l-.936-2.377-.959-2.135-1.648-3.568c-5.264-10.683-11.88-20.87-19.624-30.347-7.736-9.48-16.624-18.257-26.644-25.9l-3.77-2.86-3.909-2.702-1.958-1.354-2.021-1.27-4.06-2.533c-5.535-3.198-11.205-6.281-17.182-8.838-5.915-2.684-12.105-4.863-18.406-6.812-3.183-.873-6.352-1.847-9.615-2.518-1.627-.35-3.24-.777-4.884-1.071l-4.945-.876C168.596.018 156.294-.478 144.004.445c-12.283.95-24.618 3.281-36.446 7.306l-4.426 1.534c-1.48.499-2.906 1.145-4.363 1.712-1.441.603-2.914 1.13-4.329 1.795l-4.253 1.97c-1.431.632-2.814 1.358-4.193 2.092l-4.148 2.179-4.035 2.372c-1.344.793-2.698 1.567-3.984 2.45l-3.904 2.566c-1.314.835-2.53 1.81-3.798 2.708-1.245.93-2.537 1.797-3.74 2.778l-3.623 2.918c-1.225.95-2.38 1.98-3.533 3.01l-3.465 3.075-3.311 3.223c-1.102 1.074-2.216 2.135-3.243 3.278-8.45 8.9-15.876 18.61-21.949 28.883a167 167 0 0 0-14.559 31.853c-7.35 21.704-9.457 43.715-8.476 63.596-.212-8.184-.247-19.921 1.265-31.505m237.081 151.936a163 163 0 0 0 14.724-10.733c-4.77 3.93-9.672 7.558-14.724 10.733m67.56-91.186c-.503 1.513-.928 3.008-1.483 4.436l-1.607 4.239-.783 2.096-.862 2.068a182 182 0 0 0-1.675 4.201 163.5 163.5 0 0 1-11.065 22.426c-4.235 7.182-9.143 13.911-14.388 20.226-2.59 3.19-5.412 6.148-8.187 9.106l-4.336 4.238c-1.423 1.425-2.98 2.695-4.455 4.039a187 187 0 0 1-3.738 3.161 152 152 0 0 0 13.265-12.283 151 151 0 0 1-19.636 17.115c-1.74 1.212-3.422 2.513-5.23 3.655l-5.454 3.476-5.762 3.274c-1.96 1.088-4.03 2.056-6.105 3.116a125 125 0 0 1 4.51-2.534c1.716-.952 3.515-2.078 5.272-3.107 1.77-1.01 3.38-2.119 4.717-3.046s2.386-1.696 2.932-2.194c-.78.53-1.573 1.037-2.362 1.552a155 155 0 0 0 2.531-1.705c-.035.039-.109.1-.17.153 18.365-12.541 34.01-29.023 45.731-47.812 11.774-18.772 19.436-39.948 22.61-61.484-.688 8.638-2.27 15.535-4.27 21.588M280.76 69.876a155 155 0 0 1 13.057 24.109c.42.922.817 1.858 1.208 2.795 8.337 20.417 12.13 42.319 11.574 63.895.142-7.14-.332-14.276-1.123-21.351-.896-8.154-2.55-16.21-4.744-24.09-4.304-15.803-11.294-30.78-20.167-44.435a182 182 0 0 1 2.562 3.639 55 55 0 0 1 2.67 4.137l-1.07-1.863-1.158-1.812-2.315-3.622c-1.576-2.392-3.284-4.697-4.929-7.042-1.784-2.24-3.475-4.556-5.332-6.738-1.404-1.6-2.75-3.255-4.174-4.836 5.026 5.3 9.745 10.986 13.941 17.213M162.755 1.935c2.464.13 4.933.37 7.403.556 2.022.17 4.035.468 6.027.693.598.025 1.23.066 2.023.155.79.109 1.737.312 2.971.595 9.187 1.532 17.57 3.835 23.52 6.213 11.42 4.323 22.045 9.7 31.682 15.91 9.64 6.199 18.292 13.25 25.611 20.95 3.373 3.66 2.389 2.862.53 1.085l2.791 2.963c-1.236-1.233-2.45-2.483-3.706-3.689l-3.865-3.51c.94.822 3.222 2.793 4.78 4.236-12.413-12.665-26.922-23.18-42.627-30.916-15.717-7.733-32.641-12.508-49.56-14.415 2.719.302 4.053.37 5.323.403-1.823-.213-3.65-.506-5.5-.673-2.485-.163-4.964-.385-7.43-.506l-7.324-.173c2.425-.002 4.883.065 7.35.122"/><path xmlns="http://www.w3.org/2000/svg" d="m194.766 310.252.716-.21c-.75.202-1.487.423-2.241.615.51-.128 1.023-.252 1.525-.405m74.723-64.74c7.114-9.385 13.4-20.6 17.413-30.26l-.048.01c-10.182 24.058-26.696 44.784-47.305 60.044a267 267 0 0 0 10.781-7.9c4.533-4.737 12.117-12.441 19.16-21.894M59.383 273.557c12.048 10.772 26.577 20.145 42.75 26.46 6.305 2.373 12.74 4.453 19.323 5.918 3.265.843 6.6 1.364 9.909 1.984 1.658.294 3.338.457 5.004.692 1.67.217 3.336.462 5.018.56-7.591-.842-15.127-2.102-22.463-4.1-7.33-1.99-14.517-4.451-21.45-7.473a164 164 0 0 1-19.98-10.607c-6.36-4.045-12.39-8.562-18.11-13.434m148.713 19.203-3.728 1.463-3.807 1.27c-2.52.907-5.118 1.586-7.71 2.306 2.605-.655 5.226-1.266 7.768-2.106l3.835-1.173 3.746-1.369c-.145-.074-.998.093-.104-.391m-44.002 9.555c-1.95.166-3.908.151-5.87.171-1.962.024-3.927.066-5.894-.064l2.647.249c.81.052 1.539.114 2.175.19 2.32-.198 4.623-.254 6.942-.546m-77.68-18.069c2.253 1.322 4.645 2.487 7.018 3.77.595.326 1.673.697 3.026 1.191-2.891-1.241-5.661-2.78-8.477-4.208-1.394-.74-2.736-1.57-4.104-2.343-1.364-.78-2.723-1.558-4.013-2.428l1.574 1.052 1.641.98z"/></g><g fill="url(#a)" transform="translate(106 55)"><path xmlns="http://www.w3.org/2000/svg" d="M50.685 10.188a1 1 0 0 0-1.181.01c-.187.138-4.567 3.438-4.539 7.67.03 4.233 4.455 7.473 4.643 7.609a.99.99 0 0 0 1.182-.008c.186-.138 4.567-3.439 4.538-7.671-.029-4.234-4.454-7.473-4.643-7.61m-.505 13.187c-1.243-1.081-3.199-3.259-3.215-5.52-.016-2.42 2.088-4.613 3.144-5.56 1.068.933 3.203 3.097 3.22 5.517.016 2.423-2.096 4.619-3.15 5.563"/><path xmlns="http://www.w3.org/2000/svg" d="M17.993 44.672h-.04c-4.234.03-7.474 4.455-7.61 4.643a1 1 0 0 0 .009 1.181c.137.187 3.417 4.54 7.63 4.54h.04c4.233-.03 7.474-4.456 7.61-4.644a1 1 0 0 0-.009-1.181c-.138-.187-3.417-4.54-7.63-4.54m.016 8.363h-.028c-2.409 0-4.588-2.092-5.531-3.143.932-1.069 3.096-3.204 5.516-3.22h.028c2.408 0 4.588 2.092 5.53 3.143-.932 1.069-3.095 3.204-5.515 3.22"/><path xmlns="http://www.w3.org/2000/svg" d="M50.546 74.37a1 1 0 0 0-1.18.008c-.187.138-4.568 3.437-4.54 7.67.029 4.233 4.455 7.473 4.643 7.61a1 1 0 0 0 1.18-.01c.187-.137 4.569-3.437 4.54-7.67s-4.454-7.472-4.643-7.609m-.505 13.185c-1.244-1.081-3.2-3.258-3.214-5.52-.017-2.42 2.088-4.612 3.143-5.558 1.069.931 3.203 3.094 3.22 5.514.016 2.424-2.096 4.62-3.15 5.564"/><path xmlns="http://www.w3.org/2000/svg" d="M82.132 44.812c-4.232.028-7.473 4.454-7.609 4.642a1 1 0 0 0 .009 1.18c.137.187 3.417 4.54 7.63 4.54h.04c4.233-.028 7.474-4.454 7.61-4.643a1 1 0 0 0-.008-1.18c-.138-.188-3.417-4.528-7.672-4.54m.057 8.362c-2.449.055-4.62-2.094-5.564-3.149 1.082-1.243 3.259-3.198 5.521-3.213h.03c2.41 0 4.593 2.098 5.533 3.148-1.08 1.243-3.258 3.198-5.52 3.214"/><path xmlns="http://www.w3.org/2000/svg" d="M28.745 14.639c-3.667-3.668-16.26-4.55-17.683-4.637a1 1 0 0 0-1.06 1.06c.088 1.423.97 14.017 4.636 17.683a9.94 9.94 0 0 0 7.053 2.917c2.241 0 4.482-.75 6.311-2.246l1.596 1.596a.997.997 0 0 0 1.414 0 1 1 0 0 0 0-1.414l-1.595-1.596c3.202-3.914 2.979-9.713-.672-13.363M16.052 27.33c-2.146-2.146-3.322-9.143-3.814-13.678l9.58 9.578h-3.315a1 1 0 1 0 0 2h5.315l2.757 2.758c-3.126 2.426-7.653 2.212-10.523-.658m9.18-3.513v-5.315a1 1 0 1 0-2 0v3.315l-9.58-9.58c4.535.491 11.53 1.666 13.68 3.815 2.868 2.87 3.083 7.396.657 10.522z"/><path xmlns="http://www.w3.org/2000/svg" d="M31.012 70.402a1 1 0 1 0-1.414-1.414l-1.596 1.596c-3.914-3.202-9.713-2.98-13.364.67-3.666 3.667-4.548 16.26-4.636 17.684A1 1 0 0 0 11 90l.062-.002c1.424-.088 14.016-.969 17.683-4.637 3.65-3.65 3.874-9.45.672-13.363zm-14.96 2.267a7.95 7.95 0 0 1 5.64-2.332c1.727 0 3.45.562 4.883 1.674l-2.757 2.758h-5.315a1 1 0 1 0 0 2h3.314l-9.58 9.579c.492-4.536 1.667-11.532 3.815-13.68m11.28 11.278c-2.148 2.147-9.144 3.323-13.68 3.815l9.58-9.58v3.315a1 1 0 1 0 2 0v-5.315l2.757-2.757c2.426 3.126 2.211 7.653-.658 10.522"/><path xmlns="http://www.w3.org/2000/svg" d="m71.997 70.584-1.595-1.596a1 1 0 1 0-1.414 1.414l1.595 1.596c-3.202 3.914-2.979 9.713.672 13.363 3.667 3.668 16.26 4.55 17.683 4.637L89 90a1 1 0 0 0 .998-1.062c-.088-1.423-.97-14.017-4.636-17.683-3.65-3.651-9.45-3.874-13.365-.671m6.312-.247a7.95 7.95 0 0 1 5.639 2.332c2.146 2.146 3.322 9.143 3.814 13.678l-9.58-9.578h3.315a1 1 0 1 0 0-2h-5.315l-2.757-2.758a7.96 7.96 0 0 1 4.884-1.674m-6.298 3.088 2.757 2.757v5.315a1 1 0 1 0 2 0v-3.315l9.58 9.58c-4.535-.491-11.53-1.666-13.68-3.815-2.868-2.87-3.083-7.396-.657-10.522"/><path xmlns="http://www.w3.org/2000/svg" d="M68.988 31.012a.997.997 0 0 0 1.414 0l1.596-1.596a9.95 9.95 0 0 0 6.31 2.246 9.95 9.95 0 0 0 7.054-2.917c3.666-3.666 4.548-16.26 4.636-17.683a1 1 0 0 0-.291-.769 1.02 1.02 0 0 0-.769-.291c-1.424.088-14.016.969-17.683 4.637-3.65 3.65-3.874 9.45-.672 13.363l-1.595 1.596a1 1 0 0 0 0 1.414m14.96-3.68c-2.87 2.87-7.396 3.084-10.523.657l2.757-2.758h5.315a1 1 0 1 0 0-2h-3.314l9.58-9.579c-.492 4.536-1.667 11.532-3.815 13.68m-11.28-11.28c2.148-2.146 9.144-3.322 13.68-3.814l-9.58 9.58v-3.315a1 1 0 1 0-2 0v5.315l-2.757 2.757c-2.426-3.126-2.211-7.653.658-10.522"/><path xmlns="http://www.w3.org/2000/svg" d="M70.95 49.936c0-2.832-1.904-5.334-4.912-6.607a9.4 9.4 0 0 0 .624-2.43c.259-2.275-.397-4.326-1.848-5.777-2.061-2.062-5.294-2.402-8.278-1.18-1.276-2.996-3.775-4.892-6.6-4.892-2.832 0-5.334 1.904-6.607 4.912a9.4 9.4 0 0 0-2.43-.623c-2.275-.26-4.327.397-5.777 1.848-1.45 1.45-2.107 3.501-1.848 5.776.097.85.322 1.692.657 2.506-2.99 1.277-4.881 3.773-4.881 6.594 0 2.837 1.909 5.34 4.923 6.613-1.186 2.963-.83 6.158 1.213 8.202 1.273 1.273 2.993 1.893 4.825 1.893 1.135 0 2.312-.246 3.453-.713 1.276 2.996 3.775 4.892 6.6 4.892 2.837 0 5.342-1.911 6.613-4.927 1.117.446 2.266.683 3.375.683 1.833 0 3.553-.62 4.826-1.893 1.15-1.15 1.805-2.684 1.892-4.435.063-1.27-.19-2.588-.707-3.844 2.993-1.277 4.887-3.774 4.887-6.598m-2 0c0 2.049-1.489 3.883-3.83 4.825a11 11 0 0 0-1.43-1.765c-1.537-1.538-4.012-2.478-6.084-3.037 2.052-.56 4.497-1.496 6.02-3.02a11.2 11.2 0 0 0 1.479-1.834c2.35.94 3.845 2.777 3.845 4.83m-5.55-13.4c1.01 1.01 1.463 2.48 1.274 4.136-.198 1.741-1.072 3.465-2.462 4.853-1.177 1.178-3.507 2.19-6.44 2.822a6.02 6.02 0 0 0-4.193-4.137c.632-2.956 1.647-5.302 2.831-6.486 2.805-2.806 6.839-3.338 8.99-1.188M50 54.01A4.013 4.013 0 0 1 45.992 50c0-2.21 1.798-4.008 4.008-4.008S54.008 47.79 54.008 50A4.013 4.013 0 0 1 50 54.009m-.064-22.96c2.05 0 3.884 1.49 4.826 3.832a11 11 0 0 0-1.766 1.429c-1.538 1.536-2.478 4.012-3.037 6.084-.559-2.048-1.495-4.497-3.02-6.021a11.2 11.2 0 0 0-1.834-1.478c.94-2.35 2.777-3.845 4.831-3.845m-13.4 5.552c1.011-1.012 2.48-1.461 4.136-1.276 1.741.2 3.465 1.073 4.854 2.462 1.176 1.177 2.188 3.508 2.821 6.442a6.02 6.02 0 0 0-4.137 4.192c-2.955-.633-5.306-1.65-6.487-2.831-1.389-1.389-2.263-3.112-2.461-4.854-.19-1.656.263-3.125 1.274-4.135M31.05 50.063c0-2.047 1.488-3.881 3.828-4.823.41.623.885 1.218 1.431 1.764 1.54 1.539 4.029 2.481 6.085 3.038-2.082.565-4.5 1.498-6.02 3.018a11 11 0 0 0-1.475 1.836c-2.352-.939-3.85-2.777-3.85-4.833m5.55 13.4c-2.15-2.15-1.618-6.184 1.188-8.99 1.166-1.165 3.537-2.193 6.44-2.821a6.02 6.02 0 0 0 4.193 4.139c-.633 2.956-1.648 5.302-2.831 6.485-2.806 2.806-6.839 3.34-8.99 1.188m13.464 5.487c-2.049 0-3.883-1.489-4.825-3.829a11 11 0 0 0 1.765-1.43c1.538-1.538 2.48-4.02 3.037-6.084.558 2.044 1.495 4.496 3.02 6.02a11 11 0 0 0 1.836 1.474c-.94 2.352-2.778 3.85-4.833 3.85m13.4-5.55c-2.152 2.15-6.183 1.62-8.99-1.187-1.175-1.176-2.188-3.508-2.821-6.44a6.02 6.02 0 0 0 4.137-4.194c2.955.632 5.301 1.646 6.487 2.831 1.662 1.663 2.596 3.858 2.496 5.868-.063 1.248-.515 2.327-1.31 3.121"/></g><path fill="#fff" d="M84.791 184.341h8.94l-15.29 36.71h-7.26L56 184.34h8.904l9.889 27.076zm20.574 37.403c-5.948 0-11.312-2.847-11.312-10 0-7.845 6.386-10.29 14.049-11.676l5.547-1.022c2.408-.474 3.393-1.57 3.393-3.32 0-4.525-3.54-6.022-7.188-6.022-3.978 0-7.226 1.752-7.773 6.46l-7.554-1.387c1.277-7.59 6.751-11.094 15.837-11.094 7.335 0 14.743 2.628 14.743 12.955v14.231c0 3.467.912 4.452 3.466 4.452h.584v5.73h-3.977c-4.124 0-6.605-1.46-7.445-4.854h-.4c-2.847 4.014-7.555 5.546-11.97 5.546zm1.97-6.605c5.766 0 10.255-4.27 10.255-10.984l-9.378 2.08c-3.868.73-6.021 2.043-6.021 4.817 0 2.882 2.262 4.087 5.145 4.087m26.45 5.911V165h8.465v56.05zm50.168-18.975-.11 2.117H155.93c.328 7.298 5.035 10.801 10.619 10.801 4.087 0 7.407-2.08 9.086-5.765l7.663 1.313c-2.554 7.08-8.904 11.203-16.676 11.203-11.276 0-18.94-7.006-18.94-19.048s7.846-19.085 18.684-19.085c10.108 0 17.552 5.912 17.588 18.465zM166.4 189.851c-5.145 0-8.94 2.481-10.108 8.064h19.23c-.656-5.437-4.269-8.064-9.122-8.064m31.083.656c1.788-3.65 6.496-6.532 11.823-6.569v7.663c-7.48 0-11.494 2.737-11.494 10.729v18.72h-8.43v-36.709h8.101v6.167zm19.406-13.172c-2.846 0-5.182-2.336-5.182-5.145 0-2.847 2.336-5.146 5.182-5.146 2.773 0 5.145 2.3 5.145 5.146 0 2.81-2.372 5.145-5.145 5.145m-4.306 43.715v-36.709h8.43v36.71zm29.076.694c-7.991 0-14.085-3.394-15.326-10.181l7.116-2.007c.985 4.16 4.087 6.167 8.21 6.167 3.029 0 6.313-1.095 6.24-4.635-.073-4.16-5.4-4.67-11.276-6.641-4.744-1.533-9.341-3.686-9.341-10.072 0-7.37 6.094-10.692 13.684-10.692 6.933 0 12.699 2.81 13.976 9.634l-6.642 1.57c-.985-3.869-3.904-5.401-7.298-5.401-3.029 0-5.984 1.167-5.984 4.196 0 3.503 4.306 4.233 8.976 5.474 5.73 1.496 12.006 3.685 12.006 11.458 0 8.137-6.787 11.13-14.341 11.13"/><path fill="#feacc6" d="M86.166 252.428c-5.847 0-10.166-3.975-10.166-10.22S80.32 232 86.166 232c4.43 0 7.979 2.27 9.395 6.039l-3.851 1.403c-.88-2.31-2.985-3.645-5.544-3.645-3.425 0-6.053 2.393-6.053 6.41s2.628 6.424 6.053 6.424c2.559 0 4.663-1.348 5.544-3.659l3.851 1.403c-1.416 3.77-4.966 6.053-9.395 6.053m21.584 0c-5.847 0-10.166-3.99-10.166-10.22 0-6.246 4.32-10.208 10.166-10.208 5.832 0 10.152 3.962 10.152 10.207 0 6.232-4.32 10.221-10.152 10.221m0-3.783c3.425 0 6.052-2.407 6.052-6.438 0-4.017-2.627-6.41-6.052-6.41s-6.053 2.393-6.053 6.41c0 4.03 2.627 6.438 6.053 6.438m27.252 3.508-1.445-4.1h-8.35l-1.444 4.1h-4.223l7.318-19.877h5.048l7.319 19.877zm-8.585-7.552h5.929l-2.958-8.433zm24.596 7.827c-5.846 0-10.166-3.975-10.166-10.22S145.167 232 151.013 232c4.43 0 7.979 2.27 9.396 6.039l-3.852 1.403c-.88-2.31-2.985-3.645-5.544-3.645-3.425 0-6.053 2.393-6.053 6.41s2.628 6.424 6.053 6.424c2.559 0 4.664-1.348 5.544-3.659l3.852 1.403c-1.417 3.77-4.966 6.053-9.396 6.053m25.312-20.152h4.127v19.877h-4.127v-8.171h-8.405v8.171h-4.127v-19.877h4.127v8.116h8.405zm9.272 19.877v-19.877h4.127v19.877zm22.835-19.877h4.114v19.877h-4.774l-8.804-14.21v14.21h-4.113v-19.877h4.718l8.86 14.127zm17.856 20.152c-5.737 0-9.96-3.962-9.96-10.166 0-6.286 4.32-10.262 10.166-10.262 3.838 0 7.016 1.692 8.75 4.677l-3.619 1.926c-1.045-2.036-2.916-3.013-5.13-3.013-3.44 0-6.026 2.366-6.026 6.576 0 4.058 2.421 6.672 6.177 6.672 2.544 0 4.883-1.266 5.447-4.168h-5.434v-3.316H236v10.799h-3.247v-2.751c-1.279 1.884-3.425 3.026-6.465 3.026"/></g></svg>