<svg xmlns="http://www.w3.org/2000/svg" viewBox="620 645 1900 1900"><path fill="#f06aa8" d="M2392.3 1591.922c0-111.153-74.74-209.343-192.781-259.31 12.47-31.003 20.769-63.074 24.46-95.386 10.177-89.268-15.561-169.758-72.518-226.715-80.893-80.921-207.773-94.289-324.918-46.32-50.075-117.584-148.134-192.009-259.022-192.009-111.163 0-209.365 74.752-259.326 192.78-31.008-12.472-63.078-20.76-95.389-24.44-89.268-10.195-169.797 15.6-226.715 72.52-56.938 56.956-82.695 137.446-72.519 226.715 3.802 33.345 12.637 66.404 25.786 98.341-117.348 50.125-191.596 148.094-191.596 258.845 0 111.317 74.925 209.602 193.211 259.515-46.515 116.319-32.587 241.731 47.628 321.934 49.962 49.981 117.46 74.282 189.383 74.282 44.536 0 90.73-9.626 135.533-27.97 50.073 117.592 148.132 192.017 259.025 192.017 111.348 0 209.676-75.014 259.558-193.388 43.848 17.525 88.94 26.811 132.47 26.811 71.924 0 139.44-24.3 189.402-74.281 45.17-45.152 70.85-105.367 74.262-174.09 2.477-49.861-7.421-101.567-27.755-150.877 117.476-50.1 191.822-148.117 191.822-258.974m-78.497 0c0 80.424-58.447 152.425-150.306 189.383-16.103-24.559-34.77-47.916-56.114-69.26-60.358-60.373-157.484-97.255-238.837-119.203 80.543-21.962 176.529-58.705 236.308-118.513 22.257-22.25 41.498-46.527 58.017-72.005 92.224 36.896 150.932 109.002 150.932 189.598m-217.842-525.91c39.67 39.67 57.436 97.317 50.02 162.322-7.8 68.34-42.105 135.99-96.628 190.495-46.222 46.239-137.673 85.928-252.808 110.755-22.626-78.846-85.279-140.738-164.529-162.39 24.811-116.025 64.613-208.096 111.109-254.574 110.099-110.12 268.417-131.009 352.836-46.609m-525.93 685.78c-86.738 0-157.302-70.564-157.302-157.34 0-86.739 70.564-157.302 157.302-157.302s157.302 70.563 157.302 157.302c0 86.776-70.564 157.34-157.302 157.34m-2.51-901.112c80.43 0 152.448 58.48 189.412 150.388-24.27 15.926-47.648 34.39-69.309 56.051-60.349 60.306-97.257 157.47-119.198 238.79-21.931-80.348-58.7-176.501-118.499-236.298-22.259-22.256-46.545-41.501-72.03-58.017 36.88-92.223 108.994-150.914 189.624-150.914m-525.93 217.86c39.69-39.708 97.355-57.34 162.323-50.057 68.34 7.82 135.99 42.124 190.513 96.627 46.165 46.182 85.879 137.687 110.728 252.828-78.84 22.623-140.725 85.281-162.378 164.522-115.99-24.838-208.234-64.752-254.597-111.102-54.504-54.503-88.809-122.153-96.608-190.494-7.417-65.006 10.348-122.652 50.019-162.323M826.26 1596.943c0-80.376 58.428-152.357 150.254-189.326 16.127 24.455 34.726 47.802 56.166 69.242 60.424 60.396 158.112 97.394 238.835 119.231-81.715 22.202-176.663 58.816-236.305 118.446-22.492 22.49-41.57 46.823-57.874 72.097-92.306-36.873-151.076-109.018-151.076-189.69m217.842 525.949c-84.42-84.438-63.51-242.737 46.608-352.856 45.777-45.76 138.828-86.091 252.796-110.751 22.612 78.885 85.272 140.802 164.534 162.456-24.825 116.004-64.666 208.108-111.101 254.543-110.119 110.12-268.398 131.047-352.837 46.608m528.44 215.332c-80.404 0-152.397-58.442-189.375-150.293 24.27-15.925 47.614-34.481 69.272-56.147 60.373-60.358 97.315-157.742 119.2-238.774 21.903 80.227 58.692 176.466 118.497 236.283 22.49 22.49 46.814 41.563 72.087 57.867-36.863 92.306-109.005 151.064-189.68 151.064m525.93-217.862c-84.457 84.439-242.679 63.588-352.836-46.57-46.136-46.138-85.862-137.686-110.725-252.793 78.845-22.628 140.731-85.286 162.38-164.56 115.976 24.8 208.069 64.603 254.593 111.106 65.255 65.274 101.878 151.399 97.968 230.318-2.453 48.984-20.218 91.338-51.38 122.5"/></svg>